<svg width="231.47996826171874px" height="59.694995117187496px" xmlns="http://www.w3.org/2000/svg" viewBox="134.26001586914063 45.152502441406256 231.47996826171874 59.694995117187496" style="background: none;" preserveAspectRatio="xMidYMid"><defs><filter id="editing-hole" x="-100%" y="-100%" width="300%" height="300%"><feFlood flood-color="#000000" result="black"></feFlood><feMorphology operator="dilate" radius="2" in="SourceGraphic" result="erode"></feMorphology><feGaussianBlur in="erode" stdDeviation="4" result="blur"></feGaussianBlur><feOffset in="blur" dx="2" dy="2" result="offset"></feOffset><feComposite operator="atop" in="offset" in2="black" result="merge"></feComposite><feComposite operator="in" in="merge" in2="SourceGraphic" result="inner-shadow"></feComposite></filter></defs><g filter="url(#editing-hole)"><g transform="translate(171.8350027501583, 86.82625007629395)"><path d="M6.53 0.23L2.42-12.01L2.12-12.90L2.12-12.90Q1.56-14.63 1.45-15.13L1.45-15.13L0.16-15.09L0.16-16.10L5.75-16.10L5.75-15.34L5.75-15.34Q4.81-15.29 4.42-15.03L4.42-15.03L4.42-15.03Q4.03-14.77 4.03-14.17L4.03-14.17L4.03-14.17Q4.03-13.62 4.25-12.83L4.25-12.83L4.25-12.83Q4.67-11.29 5.36-9.38L5.36-9.38L5.36-9.38Q5.47-9.04 5.63-8.57L5.63-8.57L5.63-8.57Q5.80-8.10 6.00-7.47L6.00-7.47L6.00-7.47Q6.14-6.99 6.35-6.42L6.35-6.42L6.35-6.42Q6.55-5.84 6.65-5.59L6.65-5.59L6.65-5.59Q7.11-4.35 7.34-3.61L7.34-3.61L7.38-3.61L7.38-3.61Q7.84-5.17 8.33-6.65L8.33-6.65L8.33-6.65Q9.15-9.31 10.14-12.28L10.14-12.28L10.14-12.28Q11.18-15.39 11.38-16.15L11.38-16.15L12.12-16.15L12.12-16.15Q12.40-15.20 13.06-13.19L13.06-13.19L13.06-13.19Q13.73-11.18 14.03-10.28L14.03-10.28L14.03-10.28Q14.72-8.30 14.97-7.47L14.97-7.47L14.97-7.47Q15.16-6.85 15.57-5.61L15.57-5.61L15.57-5.61Q16.03-4.28 16.31-3.33L16.31-3.33L16.38-3.33L16.38-3.33Q16.93-5.13 17.32-6.30L17.32-6.30L17.32-6.30Q18.49-9.64 19.23-12.05L19.23-12.05L19.23-12.05Q19.48-12.90 19.69-13.48L19.69-13.48L19.69-13.48Q20.13-14.65 20.40-15.16L20.40-15.16L18.56-15.09L18.56-16.10L23.23-16.10L23.23-15.34L23.23-15.34Q22.40-15.25 21.98-15.00L21.98-15.00L21.98-15.00Q21.55-14.74 21.22-14.09L21.22-14.09L21.22-14.09Q20.88-13.43 20.38-11.94L20.38-11.94L19.20-8.44L19.20-8.44Q17.36-2.85 16.24 0.23L16.24 0.23L15.55 0.23L11.25-12.07L7.20 0.23L6.53 0.23ZM27.12 0.37L27.12 0.37Q25.44 0.37 24.55-0.39L24.55-0.39L24.55-0.39Q23.67-1.15 23.67-2.37L23.67-2.37L23.67-2.37Q23.67-3.70 24.74-4.62L24.74-4.62L24.74-4.62Q25.81-5.54 27.43-5.99L27.43-5.99L27.43-5.99Q29.05-6.44 30.68-6.42L30.68-6.42L30.68-7.84L30.68-7.84Q30.68-9.34 30.24-10.18L30.24-10.18L30.24-10.18Q29.81-11.02 28.38-11.02L28.38-11.02L28.38-11.02Q27.67-11.02 27.02-10.72L27.02-10.72L27.02-10.72Q26.38-10.42 26.08-9.82L26.08-9.82L26.08-9.82Q26.38-9.50 26.38-8.95L26.38-8.95L26.38-8.95Q26.38-8.60 26.13-8.29L26.13-8.29L26.13-8.29Q25.87-7.98 25.39-7.98L25.39-7.98L25.39-7.98Q24.91-7.98 24.63-8.29L24.63-8.29L24.63-8.29Q24.36-8.60 24.36-9.11L24.36-9.11L24.36-9.11Q24.36-9.87 24.94-10.50L24.94-10.50L24.94-10.50Q25.53-11.13 26.58-11.50L26.58-11.50L26.58-11.50Q27.62-11.87 28.91-11.87L28.91-11.87L28.91-11.87Q30.84-11.87 31.76-10.84L31.76-10.84L31.76-10.84Q32.68-9.82 32.66-7.61L32.66-7.61L32.64-2.44L32.64-2.44Q32.64-1.70 32.55-0.87L32.55-0.87L34.18-0.97L34.18 0L30.89 0L30.89 0Q30.82-0.34 30.73-1.31L30.73-1.31L30.73-1.31Q29.05 0.37 27.12 0.37L27.12 0.37ZM27.65-0.94L27.65-0.94Q28.52-0.94 29.23-1.28L29.23-1.28L29.23-1.28Q29.95-1.61 30.68-2.30L30.68-2.30L30.68-2.30Q30.66-2.65 30.66-3.47L30.66-3.47L30.68-5.63L30.68-5.63Q28.80-5.57 27.32-4.86L27.32-4.86L27.32-4.86Q25.85-4.16 25.85-2.71L25.85-2.71L25.85-2.71Q25.85-1.86 26.36-1.40L26.36-1.40L26.36-1.40Q26.86-0.94 27.65-0.94L27.65-0.94ZM35.77 0L35.77-0.69L35.77-0.69Q36.43-0.69 36.72-1.02L36.72-1.02L36.72-1.02Q37.01-1.36 37.06-1.87L37.06-1.87L37.06-1.87Q37.12-2.39 37.12-3.50L37.12-3.50L37.12-8.74L37.12-8.74Q37.12-9.71 37.21-10.23L37.21-10.23L35.58-10.17L35.58-11.11L36.29-11.11L36.29-11.11Q37.17-11.11 37.56-11.26L37.56-11.26L37.56-11.26Q37.95-11.41 38.30-11.73L38.30-11.73L38.96-11.73L38.96-11.73Q39.05-10.83 39.08-9.45L39.08-9.45L39.08-9.45Q39.65-10.40 40.72-11.13L40.72-11.13L40.72-11.13Q41.79-11.87 42.94-11.87L42.94-11.87L42.94-11.87Q43.63-11.87 44.09-11.50L44.09-11.50L44.09-11.50Q44.55-11.13 44.55-10.42L44.55-10.42L44.55-10.42Q44.55-10.05 44.26-9.68L44.26-9.68L44.26-9.68Q43.98-9.31 43.45-9.31L43.45-9.31L43.45-9.31Q42.94-9.31 42.62-9.69L42.62-9.69L42.62-9.69Q42.30-10.07 42.37-10.60L42.37-10.60L42.37-10.60Q41.49-10.63 40.61-9.94L40.61-9.94L40.61-9.94Q39.72-9.25 39.10-8.10L39.10-8.10L39.12-2.44L39.12-2.44Q39.12-1.40 39.03-0.87L39.03-0.87L40.48-0.94L40.48 0L35.77 0ZM45.72 0L45.72-0.69L45.72-0.69Q46.39-0.69 46.68-1.02L46.68-1.02L46.68-1.02Q46.97-1.36 47.02-1.87L47.02-1.87L47.02-1.87Q47.08-2.39 47.08-3.50L47.08-3.50L47.08-8.74L47.08-8.74Q47.08-9.71 47.17-10.23L47.17-10.23L45.54-10.14L45.54-11.11L45.54-11.11Q46.90-11.11 47.40-11.26L47.40-11.26L47.40-11.26Q47.91-11.41 48.25-11.73L48.25-11.73L48.92-11.73L48.92-11.73Q48.97-11.38 49.01-10.51L49.01-10.51L49.01-10.51Q49.73-11.13 50.62-11.50L50.62-11.50L50.62-11.50Q51.52-11.87 52.39-11.87L52.39-11.87L52.39-11.87Q53.52-11.87 54.31-11.47L54.31-11.47L54.31-11.47Q55.11-11.06 55.55-10.33L55.55-10.33L55.55-10.33Q56.37-10.99 57.40-11.43L57.40-11.43L57.40-11.43Q58.42-11.87 59.36-11.87L59.36-11.87L59.36-11.87Q61.39-11.87 62.32-10.64L62.32-10.64L62.32-10.64Q63.25-9.41 63.20-6.72L63.20-6.72L63.18-2.44L63.18-2.44Q63.18-1.40 63.09-0.87L63.09-0.87L64.54-0.94L64.54 0L59.85 0L59.85-0.69L59.85-0.69Q60.51-0.69 60.80-1.02L60.80-1.02L60.80-1.02Q61.09-1.36 61.15-1.87L61.15-1.87L61.15-1.87Q61.20-2.39 61.20-3.50L61.20-3.50L61.20-6.72L61.20-6.72Q61.20-8.69 60.58-9.67L60.58-9.67L60.58-9.67Q59.96-10.65 58.63-10.65L58.63-10.65L58.63-10.65Q57.91-10.65 57.19-10.34L57.19-10.34L57.19-10.34Q56.47-10.03 55.91-9.52L55.91-9.52L55.91-9.52Q56.14-8.81 56.14-7.84L56.14-7.84L56.10-2.44L56.10-2.44Q56.10-1.40 56.01-0.87L56.01-0.87L57.45-0.94L57.45 0L52.76 0L52.76-0.69L52.76-0.69Q53.43-0.69 53.72-1.02L53.72-1.02L53.72-1.02Q54.00-1.36 54.05-1.85L54.05-1.85L54.05-1.85Q54.10-2.35 54.12-3.50L54.12-3.50L54.14-6.72L54.14-6.72Q54.17-8.72 53.57-9.71L53.57-9.71L53.57-9.71Q52.97-10.70 51.66-10.70L51.66-10.70L51.66-10.70Q50.95-10.70 50.24-10.40L50.24-10.40L50.24-10.40Q49.54-10.10 49.04-9.59L49.04-9.59L49.06-8.35L49.06-2.44L49.06-2.44Q49.06-1.40 48.97-0.87L48.97-0.87L50.42-0.94L50.42 0L45.72 0ZM66.54 0L66.54-0.76L66.54-0.76Q67.34-0.78 67.69-1.13L67.69-1.13L67.69-1.13Q68.03-1.47 68.08-1.97L68.08-1.97L68.08-1.97Q68.13-2.46 68.13-3.70L68.13-3.70L68.13-13.36L68.13-13.36Q68.13-14.61 68.20-15.18L68.20-15.18L66.54-15.09L66.54-16.10L66.54-16.10Q69.90-16.15 71.74-16.15L71.74-16.15L71.74-16.15Q74.45-16.15 75.91-15.19L75.91-15.19L75.91-15.19Q77.37-14.24 77.37-12.30L77.37-12.30L77.37-12.30Q77.37-11.06 76.39-10.02L76.39-10.02L76.39-10.02Q75.42-8.97 73.58-8.65L73.58-8.65L73.58-8.60L73.58-8.60Q76.04-8.60 77.36-7.47L77.36-7.47L77.36-7.47Q78.68-6.35 78.68-4.51L78.68-4.51L78.68-4.51Q78.68-3.13 77.98-2.10L77.98-2.10L77.98-2.10Q77.28-1.08 76.05-0.54L76.05-0.54L76.05-0.54Q74.82 0 73.25 0L73.25 0L66.54 0ZM70.13-8.81L71.81-8.86L71.81-8.86Q73.62-8.88 74.45-9.86L74.45-9.86L74.45-9.86Q75.28-10.83 75.28-12.26L75.28-12.26L75.28-12.26Q75.28-13.98 74.28-14.65L74.28-14.65L74.28-14.65Q73.28-15.32 71.85-15.32L71.85-15.32L71.85-15.32Q71.12-15.32 70.75-15.11L70.75-15.11L70.75-15.11Q70.38-14.90 70.25-14.44L70.25-14.44L70.25-14.44Q70.13-13.98 70.13-13.09L70.13-13.09L70.13-8.81ZM72.50-0.87L72.50-0.87Q74.31-0.87 75.38-1.78L75.38-1.78L75.38-1.78Q76.45-2.69 76.45-4.37L76.45-4.37L76.45-4.37Q76.45-6.33 75.36-7.15L75.36-7.15L75.36-7.15Q74.27-7.98 72.50-7.98L72.50-7.98L72.50-7.98Q71.23-7.98 70.13-7.91L70.13-7.91L70.13-2.71L70.13-2.71Q70.13-1.52 70.06-0.92L70.06-0.92L70.06-0.92Q70.50-0.87 71.71-0.87L71.71-0.87L72.50-0.87ZM83.81 0.37L83.81 0.37Q82.13 0.37 81.25-0.39L81.25-0.39L81.25-0.39Q80.36-1.15 80.36-2.37L80.36-2.37L80.36-2.37Q80.36-3.70 81.43-4.62L81.43-4.62L81.43-4.62Q82.50-5.54 84.12-5.99L84.12-5.99L84.12-5.99Q85.74-6.44 87.38-6.42L87.38-6.42L87.38-7.84L87.38-7.84Q87.38-9.34 86.94-10.18L86.94-10.18L86.94-10.18Q86.50-11.02 85.08-11.02L85.08-11.02L85.08-11.02Q84.36-11.02 83.72-10.72L83.72-10.72L83.72-10.72Q83.08-10.42 82.78-9.82L82.78-9.82L82.78-9.82Q83.08-9.50 83.08-8.95L83.08-8.95L83.08-8.95Q83.08-8.60 82.82-8.29L82.82-8.29L82.82-8.29Q82.57-7.98 82.09-7.98L82.09-7.98L82.09-7.98Q81.60-7.98 81.33-8.29L81.33-8.29L81.33-8.29Q81.05-8.60 81.05-9.11L81.05-9.11L81.05-9.11Q81.05-9.87 81.64-10.50L81.64-10.50L81.64-10.50Q82.22-11.13 83.27-11.50L83.27-11.50L83.27-11.50Q84.32-11.87 85.61-11.87L85.61-11.87L85.61-11.87Q87.54-11.87 88.46-10.84L88.46-10.84L88.46-10.84Q89.38-9.82 89.36-7.61L89.36-7.61L89.33-2.44L89.33-2.44Q89.33-1.70 89.24-0.87L89.24-0.87L90.87-0.97L90.87 0L87.58 0L87.58 0Q87.52-0.34 87.42-1.31L87.42-1.31L87.42-1.31Q85.74 0.37 83.81 0.37L83.81 0.37ZM84.34-0.94L84.34-0.94Q85.22-0.94 85.93-1.28L85.93-1.28L85.93-1.28Q86.64-1.61 87.38-2.30L87.38-2.30L87.38-2.30Q87.35-2.65 87.35-3.47L87.35-3.47L87.38-5.63L87.38-5.63Q85.49-5.57 84.02-4.86L84.02-4.86L84.02-4.86Q82.55-4.16 82.55-2.71L82.55-2.71L82.55-2.71Q82.55-1.86 83.05-1.40L83.05-1.40L83.05-1.40Q83.56-0.94 84.34-0.94L84.34-0.94ZM98.00 6.23L98.00 6.23Q96.02 6.23 94.74 5.80L94.74 5.80L94.74 5.80Q93.45 5.36 92.85 4.65L92.85 4.65L92.85 4.65Q92.25 3.93 92.25 3.13L92.25 3.13L92.25 3.13Q92.25 2.16 92.90 1.44L92.90 1.44L92.90 1.44Q93.54 0.71 94.37 0.37L94.37 0.37L94.37 0.37Q93.59 0.11 93.18-0.32L93.18-0.32L93.18-0.32Q92.78-0.76 92.78-1.45L92.78-1.45L92.78-1.45Q92.78-2.28 93.44-2.97L93.44-2.97L93.44-2.97Q94.09-3.66 95.08-3.82L95.08-3.82L95.08-3.82Q94.00-4.32 93.38-5.23L93.38-5.23L93.38-5.23Q92.76-6.14 92.76-7.31L92.76-7.31L92.76-7.31Q92.76-8.65 93.46-9.68L93.46-9.68L93.46-9.68Q94.16-10.72 95.28-11.29L95.28-11.29L95.28-11.29Q96.39-11.87 97.61-11.87L97.61-11.87L97.61-11.87Q99.18-11.87 100.53-11.02L100.53-11.02L100.53-11.02Q100.88-12.01 101.65-12.63L101.65-12.63L101.65-12.63Q102.42-13.25 103.32-13.25L103.32-13.25L103.32-13.25Q103.89-13.25 104.21-12.94L104.21-12.94L104.21-12.94Q104.53-12.63 104.53-12.10L104.53-12.10L104.53-12.10Q104.53-11.78 104.29-11.47L104.29-11.47L104.29-11.47Q104.05-11.15 103.59-11.15L103.59-11.15L103.59-11.15Q103.20-11.15 102.92-11.38L102.92-11.38L102.92-11.38Q102.65-11.62 102.58-11.96L102.58-11.96L102.58-11.96Q102.03-11.89 101.71-11.47L101.71-11.47L101.71-11.47Q101.38-11.04 101.25-10.44L101.25-10.44L101.25-10.44Q101.82-9.91 102.14-9.20L102.14-9.20L102.14-9.20Q102.46-8.49 102.46-7.71L102.46-7.71L102.46-7.71Q102.46-6.44 101.80-5.43L101.80-5.43L101.80-5.43Q101.13-4.42 100.02-3.84L100.02-3.84L100.02-3.84Q98.90-3.27 97.61-3.27L97.61-3.27L97.61-3.27Q97.31-3.27 96.85-3.31L96.85-3.31L96.85-3.31Q96.51-3.38 96.07-3.38L96.07-3.38L96.07-3.38Q95.31-3.38 94.79-3.05L94.79-3.05L94.79-3.05Q94.28-2.71 94.28-2.23L94.28-2.23L94.28-2.23Q94.28-1.56 95.12-1.35L95.12-1.35L95.12-1.35Q95.96-1.13 97.98-1.06L97.98-1.06L97.98-1.06Q100.81-0.92 102.22-0.15L102.22-0.15L102.22-0.15Q103.64 0.62 103.64 2.39L103.64 2.39L103.64 2.39Q103.64 3.56 102.82 4.44L102.82 4.44L102.82 4.44Q102.00 5.31 100.71 5.77L100.71 5.77L100.71 5.77Q99.41 6.23 98.00 6.23L98.00 6.23ZM97.68-4.09L97.68-4.09Q98.92-4.09 99.58-4.97L99.58-4.97L99.58-4.97Q100.23-5.84 100.23-7.25L100.23-7.25L100.23-7.25Q100.23-8.86 99.53-9.96L99.53-9.96L99.53-9.96Q98.83-11.06 97.57-11.06L97.57-11.06L97.57-11.06Q96.35-11.06 95.66-10.15L95.66-10.15L95.66-10.15Q94.97-9.25 94.97-7.82L94.97-7.82L94.97-7.82Q94.97-6.14 95.69-5.12L95.69-5.12L95.69-5.12Q96.42-4.09 97.68-4.09L97.68-4.09ZM97.98 5.34L97.98 5.34Q99.24 5.34 100.20 5.00L100.20 5.00L100.20 5.00Q101.15 4.67 101.66 4.11L101.66 4.11L101.66 4.11Q102.17 3.54 102.17 2.88L102.17 2.88L102.17 2.88Q102.17 1.70 101.05 1.26L101.05 1.26L101.05 1.26Q99.93 0.83 97.75 0.76L97.75 0.76L97.75 0.76Q96.30 0.71 95.38 0.57L95.38 0.57L95.38 0.57Q94.76 0.99 94.41 1.59L94.41 1.59L94.41 1.59Q94.07 2.19 94.07 2.85L94.07 2.85L94.07 2.85Q94.07 3.98 95.14 4.66L95.14 4.66L95.14 4.66Q96.21 5.34 97.98 5.34L97.98 5.34ZM110.74 0.37L110.74 0.37Q109.16 0.37 107.88-0.38L107.88-0.38L107.88-0.38Q106.60-1.13 105.87-2.52L105.87-2.52L105.87-2.52Q105.13-3.91 105.13-5.73L105.13-5.73L105.13-5.73Q105.13-7.34 105.87-8.75L105.87-8.75L105.87-8.75Q106.60-10.17 107.93-11.02L107.93-11.02L107.93-11.02Q109.25-11.87 110.93-11.87L110.93-11.87L110.93-11.87Q112.24-11.87 113.30-11.29L113.30-11.29L113.30-11.29Q114.36-10.72 114.98-9.58L114.98-9.58L114.98-9.58Q115.60-8.44 115.60-6.79L115.60-6.79L107.50-6.65L107.50-6.65Q107.48-3.89 108.41-2.35L108.41-2.35L108.41-2.35Q109.34-0.80 111.30-0.80L111.30-0.80L111.30-0.80Q112.35-0.80 113.47-1.36L113.47-1.36L113.47-1.36Q114.59-1.91 115.18-2.71L115.18-2.71L115.74-2.25L115.74-2.25Q114.86-0.92 113.47-0.28L113.47-0.28L113.47-0.28Q112.08 0.37 110.74 0.37L110.74 0.37ZM107.57-7.61L113.44-7.61L113.44-7.61Q113.44-8.99 112.81-9.98L112.81-9.98L112.81-9.98Q112.19-10.97 110.95-10.97L110.95-10.97L110.95-10.97Q108.10-10.97 107.57-7.61L107.57-7.61ZM117.41 0L117.41-0.69L117.41-0.69Q118.08-0.69 118.37-1.02L118.37-1.02L118.37-1.02Q118.66-1.36 118.71-1.87L118.71-1.87L118.71-1.87Q118.77-2.39 118.77-3.50L118.77-3.50L118.77-14.38L118.77-14.38Q118.77-15.25 118.84-15.87L118.84-15.87L117.21-15.78L117.21-16.74L117.21-16.74Q118.59-16.74 119.17-16.91L119.17-16.91L119.17-16.91Q119.76-17.07 120.08-17.36L120.08-17.36L120.75-17.36L120.77-2.44L120.77-2.44Q120.77-1.54 120.66-0.87L120.66-0.87L122.11-0.94L122.11 0L117.41 0ZM125.69 0.37L125.69 0.37Q125.14 0.37 124.75-0.06L124.75-0.06L124.75-0.06Q124.36-0.48 124.36-1.10L124.36-1.10L124.36-1.10Q124.36-1.72 124.76-2.16L124.76-2.16L124.76-2.16Q125.17-2.60 125.72-2.60L125.72-2.60L125.72-2.60Q126.29-2.60 126.67-2.16L126.67-2.16L126.67-2.16Q127.05-1.72 127.05-1.10L127.05-1.10L127.05-1.10Q127.05-0.48 126.65-0.06L126.65-0.06L126.65-0.06Q126.25 0.37 125.69 0.37L125.69 0.37ZM129.35 0L129.35-0.69L129.35-0.69Q130.02-0.69 130.31-1.02L130.31-1.02L130.31-1.02Q130.59-1.36 130.64-1.86L130.64-1.86L130.64-1.86Q130.69-2.37 130.69-3.50L130.69-3.50L130.69-3.50Q130.69-3.73 130.70-6.00L130.70-6.00L130.70-6.00Q130.71-8.28 130.71-14.38L130.71-14.38L130.71-14.38Q130.71-15.25 130.78-15.87L130.78-15.87L129.14-15.78L129.14-16.74L129.14-16.74Q130.50-16.74 131.09-16.91L131.09-16.91L131.09-16.91Q131.67-17.07 132.00-17.36L132.00-17.36L132.66-17.36L132.66-6.49L133.58-6.49L136.39-9.43L136.39-9.43Q137.26-10.35 137.75-10.65L137.75-10.65L136.18-10.58L136.18-11.50L140.37-11.50L140.37-10.81L140.37-10.81Q139.36-10.70 138.53-10.07L138.53-10.07L138.53-10.07Q137.70-9.45 136.69-8.39L136.69-8.39L134.89-6.51L134.89-6.51Q135.31-6.33 135.62-6.04L135.62-6.04L135.62-6.04Q135.93-5.75 136.32-5.27L136.32-5.27L137.95-3.17L137.95-3.17Q138.00-3.13 138.47-2.47L138.47-2.47L138.47-2.47Q138.94-1.82 139.60-1.25L139.60-1.25L139.60-1.25Q140.25-0.69 140.74-0.69L140.74-0.69L140.74 0L138.64 0L138.64 0Q138.09 0 137.61-0.48L137.61-0.48L137.61-0.48Q137.13-0.97 136.21-2.16L136.21-2.16L135.31-3.43L135.31-3.43Q134.80-4.14 134.35-4.75L134.35-4.75L134.35-4.75Q133.91-5.36 133.61-5.63L133.61-5.63L132.66-5.59L132.66-2.44L132.66-2.44Q132.66-1.40 132.57-0.87L132.57-0.87L134.04-0.94L134.04 0L129.35 0ZM144.19-14.01L144.19-14.01Q143.70-14.01 143.34-14.41L143.34-14.41L143.34-14.41Q142.97-14.81 142.97-15.36L142.97-15.36L142.97-15.36Q142.97-15.92 143.35-16.33L143.35-16.33L143.35-16.33Q143.73-16.74 144.21-16.74L144.21-16.74L144.21-16.74Q144.74-16.74 145.10-16.34L145.10-16.34L145.10-16.34Q145.45-15.94 145.45-15.36L145.45-15.36L145.45-15.36Q145.45-14.81 145.07-14.41L145.07-14.41L145.07-14.41Q144.69-14.01 144.19-14.01L144.19-14.01ZM141.91 0L141.91-0.69L141.91-0.69Q142.58-0.69 142.86-1.02L142.86-1.02L142.86-1.02Q143.15-1.36 143.21-1.87L143.21-1.87L143.21-1.87Q143.27-2.39 143.27-3.50L143.27-3.50L143.27-8.74L143.27-8.74Q143.27-9.41 143.36-10.23L143.36-10.23L141.73-10.14L141.73-11.11L141.73-11.11Q143.08-11.11 143.67-11.27L143.67-11.27L143.67-11.27Q144.26-11.43 144.58-11.73L144.58-11.73L145.24-11.73L145.24-2.44L145.24-2.44Q145.24-1.40 145.15-0.87L145.15-0.87L146.60-0.94L146.60 0L141.91 0ZM152.70 0.37L152.70 0.37Q149.55 0.37 149.57-3.86L149.57-3.86L149.61-10.53L147.84-10.51L147.84-11.50L147.84-11.50Q148.95-11.52 149.72-12.50L149.72-12.50L149.72-12.50Q150.49-13.48 150.86-14.72L150.86-14.72L151.64-14.72L151.64-11.50L155.50-11.50L155.50-10.60L151.64-10.56L151.64-10.56Q151.62-7.04 151.60-5.68L151.60-5.68L151.60-5.68Q151.59-4.32 151.59-4.16L151.59-4.16L151.59-4.16Q151.59-2.53 151.98-1.74L151.98-1.74L151.98-1.74Q152.37-0.94 153.34-0.94L153.34-0.94L153.34-0.94Q153.94-0.94 154.53-1.31L154.53-1.31L154.53-1.31Q155.11-1.68 155.55-2.32L155.55-2.32L156.17-1.82L156.17-1.82Q155.27-0.48 154.40-0.06L154.40-0.06L154.40-0.06Q153.52 0.37 152.70 0.37L152.70 0.37Z" fill="#000000"></path></g></g><style>text {
  font-size: 64px;
  font-family: Arial Black;
  dominant-baseline: central;
  text-anchor: middle;
}</style></svg>