<svg width="342" height="71" viewBox="0 0 342 71" fill="none" xmlns="http://www.w3.org/2000/svg">
<path d="M930 469 c-59 -163 -91 -236 -107 -249 -39 -31 -28 -40 48 -40 62 0
70 2 67 17 -2 10 -14 19 -26 21 -26 4 -25 21 3 89 l14 33 90 0 89 0 18 -52
c17 -51 16 -52 -5 -69 -38 -31 -26 -39 64 -39 78 0 85 2 85 20 0 14 -7 20 -24
20 -20 0 -27 9 -45 62 -52 154 -160 413 -173 416 -9 2 -39 -67 -98 -229z m125
12 c19 -51 35 -97 35 -102 0 -5 -34 -9 -76 -9 -87 0 -83 -15 -32 128 17 46 32
82 34 80 1 -2 19 -46 39 -97z"/>
<path d="M122 673 c2 -10 12 -19 23 -21 17 -3 33 -44 98 -243 50 -154 83 -239
92 -239 8 0 34 64 70 178 31 97 60 180 64 185 4 4 36 -76 72 -178 45 -132 68
-185 78 -183 9 2 42 87 88 223 70 209 98 265 130 265 7 0 13 7 13 15 0 12 -15
15 -75 15 -68 0 -75 -2 -75 -20 0 -14 7 -20 24 -20 l24 0 -56 -170 c-31 -93
-59 -167 -62 -164 -3 3 -32 87 -66 187 -39 117 -66 183 -75 185 -12 2 -30 -44
-75 -183 -32 -102 -61 -185 -64 -185 -10 0 -102 288 -98 307 2 10 13 22 26 28
12 5 22 15 22 22 0 10 -24 13 -91 13 -81 0 -90 -2 -87 -17z"/>
<path d="M1292 673 c2 -10 13 -19 26 -21 l22 -3 -2 -212 c-3 -209 -3 -212 -25
-222 -13 -5 -23 -15 -23 -22 0 -10 23 -13 85 -13 78 0 85 2 85 20 0 15 -7 20
-25 20 -25 0 -25 0 -25 96 0 93 1 95 23 92 15 -2 38 -28 74 -83 93 -142 97
-145 153 -145 57 0 67 18 21 38 -20 9 -49 44 -89 106 l-60 94 29 6 c40 8 75
46 89 96 15 55 5 94 -31 124 -43 36 -89 46 -217 46 -103 0 -113 -2 -110 -17z
m261 -53 c38 -42 37 -98 -1 -141 -24 -27 -37 -33 -85 -37 l-57 -4 0 100 c0
116 7 126 75 117 27 -4 49 -15 68 -35z"/>
<path d="M1750 669 c0 -17 5 -20 25 -17 25 5 25 4 24 -56 0 -33 -4 -128 -8
-210 -7 -136 -9 -151 -29 -167 -38 -30 -27 -39 48 -39 63 0 70 2 70 20 0 15
-7 20 -25 20 l-25 0 1 153 c1 207 6 218 47 114 64 -161 138 -312 152 -312 8 0
43 74 93 197 44 109 82 196 84 195 7 -7 23 -310 18 -328 -3 -10 -15 -21 -26
-24 -10 -4 -19 -13 -19 -21 0 -11 18 -14 86 -14 76 0 85 2 82 17 -2 11 -14 19
-30 21 l-26 3 -8 177 c-11 220 -10 233 15 253 34 28 25 39 -33 39 l-54 0 -75
-182 c-42 -101 -80 -194 -85 -207 -7 -21 -21 5 -97 183 l-88 206 -59 0 c-52 0
-58 -2 -58 -21z"/>
</g>
</svg>
